<svg xmlns="http://www.w3.org/2000/svg" xml:space="preserve" viewBox="0 0 474.03 474.03">
  <path d="M442.05 118.89h-136.4L237.01 0l-68.64 118.89H31.98l68.2 118.13-68.2 118.12h136.39l68.64 118.89 68.64-118.89h136.4l-68.2-118.12 68.2-118.13zM237.01 70l28.23 48.89h-56.46L237.01 70zm48.43 83.89 48 83.13-48 83.12h-96.86l-47.99-83.12 47.99-83.13h96.86zm-192.84 0h55.57l-27.79 48.12-27.78-48.12zm0 166.25 27.78-48.12 27.79 48.12H92.6zm144.41 83.89-28.23-48.89h56.46l-28.23 48.89zm144.42-83.89h-55.57l27.78-48.13 27.79 48.13zm-55.57-166.25h55.57l-27.79 48.13-27.78-48.13z"/>
</svg>