<svg xmlns="http://www.w3.org/2000/svg" xml:space="preserve" viewBox="0 0 512.001 512.001">
  <path d="M487.881 88.612c-16.124-16.124-24.249-7.998-40.372-24.121-16.124-16.124-7.997-24.249-24.121-40.372C407.267 7.997 399.141 16.122 383.019 0l-22.045 85.207a201.35 201.35 0 0 1 65.826 65.82l85.2-22.045c-16.122-16.123-7.997-24.248-24.119-40.37zM85.476 360.98.001 383.018c16.122 16.122 7.997 24.248 24.12 40.37 16.124 16.124 24.249 7.997 40.372 24.121 16.124 16.124 7.997 24.249 24.121 40.372 16.122 16.122 24.248 7.997 40.37 24.12l22.038-85.467a201.344 201.344 0 0 1-65.546-65.554zm153.94-103.125c-5.309-47.785-10.323-92.919-60.936-143.619l-3.98-3.988c-50.938 28.591-85.364 83.111-85.364 145.682 0 92.208 74.749 166.957 166.957 166.957 16.816 0 33.046-2.497 48.354-7.121-53.79-56.747-59.502-108.149-65.031-157.911zm16.676-168.882c-16.907 0-33.223 2.522-48.603 7.196 53.867 56.782 59.581 108.212 65.114 158 5.308 47.766 10.32 92.885 60.877 143.56l3.991 4c51.055-28.557 85.578-83.143 85.578-145.801-.001-92.206-74.749-166.955-166.957-166.955z"/>
</svg>